# xmcd CD database file
#
# Track frame offsets:
#	150
#	28742
#	67769
#	102708
#	122876
#	151651
#
# Disc length: 2418 seconds
#
# Revision: 0
# Processed by: cddbd v1.5.2PL0 Copyright (c) Steve Scherf et al.
# Submitted via: CDex 1.70beta2
#
DISCID=47097006
DTITLE=John McLaughlin - To The One
DYEAR=1900
DGENRE=Jazz
TTITLE0=Discovery
TTITLE1=Special Beings
TTITLE2=The Fine Line
TTITLE3=Lost And Found
TTITLE4=Recovery
TTITLE5=To The One
EXTD=
EXTT0=
EXTT1=
EXTT2=
EXTT3=
EXTT4=
EXTT5=
PLAYORDER=
